<?xml version="1.0" encoding="utf-8"?>
<!-- Generator: Adobe Illustrator 16.0.0, SVG Export Plug-In . SVG Version: 6.00 Build 0)  -->
<!DOCTYPE svg PUBLIC "-//W3C//DTD SVG 1.1//EN" "http://www.w3.org/Graphics/SVG/1.1/DTD/svg11.dtd">
<svg version="1.1" id="Layer_1" xmlns="http://www.w3.org/2000/svg" xmlns:xlink="http://www.w3.org/1999/xlink" x="0px" y="0px"
	 width="56.646px" height="187.195px" viewBox="0 0 56.646 187.195" enable-background="new 0 0 56.646 187.195"
	 xml:space="preserve">
<g>
	<path fill-rule="evenodd" clip-rule="evenodd" fill="#9DCFE6" d="M-271.431-122.525c0-0.28-0.113-0.614-0.223-0.894l-13.375-36.555
		c-0.225-0.669-0.56-0.947-1.285-0.947h-4.679c-0.78,0-1.06,0.334-1.282,0.947l-13.375,36.555c-0.111,0.335-0.222,0.614-0.222,0.894
		c0,0.555,0.28,0.947,0.949,0.947h4.065c0.725,0,1.004-0.335,1.227-0.947l3.792-10.756h13.428l3.79,10.756
		c0.222,0.669,0.56,0.947,1.227,0.947h5.014C-271.711-121.578-271.431-121.97-271.431-122.525L-271.431-122.525z M-283.468-137.293
		h-11.259l3.903-11.481c1.058-3.175,1.67-7.188,1.67-7.188h0.112c0,0,0.669,4.013,1.727,7.188L-283.468-137.293L-283.468-137.293z"
		/>
	<path fill="#9DCFE6" d="M-234.76-122.525v-37.449c0-0.669-0.333-0.947-1.002-0.947h-3.623c-0.669,0-0.949,0.278-0.949,0.947v22.346
		c0,3.289,0.391,7.301,0.391,7.301h-0.111c0,0-1.505-3.733-3.398-6.578l-15.269-23.069c-0.391-0.612-0.78-0.947-1.451-0.947h-5.236
		c-0.672,0-0.948,0.278-0.948,0.947v37.449c0,0.669,0.276,0.947,0.948,0.947h3.621c0.669,0,1.002-0.278,1.002-0.947v-24.411
		c0-2.952-0.389-6.909-0.389-6.909h0.111c0,0,1.562,3.79,3.345,6.464l16.382,24.855c0.391,0.611,0.727,0.947,1.505,0.947h4.069
		C-235.094-121.578-234.76-121.856-234.76-122.525L-234.76-122.525z"/>
	<path fill-rule="evenodd" clip-rule="evenodd" fill="#9DCFE6" d="M-195.747-141.308c0-12.146-6.63-20.059-20.73-20.059
		c-4.237,0-8.137,0.612-9.082,0.891c-0.782,0.222-1.004,0.558-1.004,1.226v36c0,0.668,0.222,1.006,1.004,1.228
		c1.002,0.331,5.405,0.891,9.082,0.891C-202.436-121.131-195.747-128.654-195.747-141.308L-195.747-141.308z M-202.937-141.417
		c0,9.919-3.901,15.882-12.815,15.882c-1.615,0-3.067-0.111-3.958-0.28v-31.203c0.669-0.17,2.343-0.28,3.958-0.28
		C-207.172-157.298-202.937-151.335-202.937-141.417L-202.937-141.417z"/>
	<path fill-rule="evenodd" clip-rule="evenodd" fill="#9DCFE6" d="M-161.698-122.525c0-0.28-0.169-0.614-0.337-0.894l-5.906-11.423
		c-1.115-2.171-3.062-4.232-4.403-4.904v-0.111c4.291-1.059,9.028-4.403,9.028-10.252c0-6.69-4.234-11.258-14.598-11.258
		c-4.74,0-8.641,0.558-9.754,0.891c-0.782,0.222-1.005,0.558-1.005,1.226v36.726c0,0.669,0.28,0.947,0.949,0.947h4.79
		c0.671,0,0.951-0.278,0.951-0.947v-16.106h2.173c2.396,0,3.954,2.395,4.847,4.292l5.683,11.923
		c0.223,0.502,0.725,0.838,1.505,0.838h5.127C-161.979-121.578-161.698-121.856-161.698-122.525L-161.698-122.525z M-170.17-149.499
		c0,4.683-3.176,7.746-8.861,7.746c-1.447,0-2.34-0.054-2.951-0.109v-15.325c0.835-0.167,2.06-0.334,4.123-0.334
		C-172.566-157.522-170.17-154.735-170.17-149.499L-170.17-149.499z"/>
	<path fill-rule="evenodd" clip-rule="evenodd" fill="#9DCFE6" d="M-134.286-122.525v-2.677c0-0.666-0.333-0.946-1.002-0.946
		h-13.428v-13.598h11.366c0.668,0,0.949-0.333,0.949-1.003v-2.45c0-0.669-0.281-0.949-0.949-0.949h-11.366v-12.26h13.428
		c0.669,0,1.002-0.335,1.002-1.002v-2.563c0-0.669-0.333-0.947-1.002-0.947h-19.393c-0.667,0-0.947,0.278-0.947,0.947v37.449
		c0,0.669,0.28,0.947,0.947,0.947h19.393C-134.62-121.578-134.286-121.856-134.286-122.525L-134.286-122.525z M-138.187-171.621
		c0-0.612-1.002-1.114-2.396-1.114c-1.785,0-3.4,0.614-3.956,1.559l-3.287,5.24c-0.17,0.334-0.333,0.556-0.333,0.778
		c0,0.502,0.276,0.727,0.723,0.727h1.616c0.56,0,0.947-0.334,1.394-0.727l5.796-5.572
		C-138.409-170.953-138.187-171.344-138.187-171.621L-138.187-171.621z"/>
	<path fill="#9DCFE6" d="M-103.243-131.833c0-13.763-18.777-11.256-18.777-20.005c0-3.623,2.34-5.797,5.796-5.797
		c3.454,0,4.958,2.507,5.902,4.569c0.561,1.228,1.564,2.177,3.01,2.177c1.786,0,3.068-1.062,3.068-3.01
		c0-2.565-3.68-7.858-11.869-7.858c-7.078,0-12.541,3.956-12.541,10.698c0,12.648,18.503,10.142,18.503,19.949
		c0,3.231-2.119,5.855-6.02,5.855c-3.845,0-5.907-3.348-6.742-5.633c-0.501-1.336-1.672-2.339-3.346-2.339
		c-1.838,0-3.174,1.116-3.174,3.122c0,3.397,4.79,9.362,12.982,9.362C-108.091-120.742-103.243-125.425-103.243-131.833
		L-103.243-131.833z"/>
	<path fill="#0084B6" d="M-67.295-128.434c0-1.002-0.667-1.726-1.616-1.726c-0.611,0-1.06,0.222-1.615,0.724
		c-1.561,1.506-3.958,3.622-8.25,3.622c-6.963,0-11.644-7.131-11.644-16.996c0-9.419,4.125-14.766,9.806-14.766
		c4.629,0,6.301,3.176,7.134,4.844c0.505,1.062,1.449,2.231,3.069,2.231c1.782,0,3.116-1.058,3.116-2.953
		c0-2.842-4.292-8.302-12.981-8.302c-10.926,0-17.444,9.083-17.444,20.174c0,11.256,5.74,20.84,17.833,20.84
		C-72.309-120.742-67.295-125.981-67.295-128.434L-67.295-128.434z"/>
	<path fill="#0084B6" d="M-39.874-122.525v-2.677c0-0.666-0.336-0.946-1.005-0.946h-13.43v-13.598h11.367
		c0.669,0,0.951-0.333,0.951-1.003v-2.45c0-0.669-0.282-0.949-0.951-0.949h-11.367v-12.26h13.43c0.669,0,1.005-0.335,1.005-1.002
		v-2.563c0-0.669-0.336-0.947-1.005-0.947h-19.394c-0.666,0-0.944,0.278-0.944,0.947v37.449c0,0.669,0.278,0.947,0.944,0.947h19.394
		C-40.21-121.578-39.874-121.856-39.874-122.525L-39.874-122.525z"/>
	<path fill-rule="evenodd" clip-rule="evenodd" fill="#0084B6" d="M-6.323-122.525c0-0.28-0.167-0.614-0.334-0.894l-5.907-11.423
		c-1.115-2.171-3.064-4.232-4.402-4.904v-0.111c4.291-1.059,9.027-4.403,9.027-10.252c0-6.69-4.235-11.258-14.602-11.258
		c-4.736,0-8.639,0.558-9.75,0.891c-0.782,0.222-1.005,0.558-1.005,1.226v36.726c0,0.669,0.278,0.947,0.945,0.947h4.796
		c0.667,0,0.944-0.278,0.944-0.947v-16.106h2.176c2.394,0,3.954,2.395,4.848,4.292l5.685,11.923
		c0.223,0.502,0.727,0.838,1.501,0.838h5.133C-6.602-121.578-6.323-121.856-6.323-122.525L-6.323-122.525z M-14.796-149.499
		c0,4.683-3.176,7.746-8.86,7.746c-1.449,0-2.339-0.054-2.954-0.109v-15.325c0.838-0.167,2.064-0.334,4.125-0.334
		C-17.193-157.522-14.796-154.735-14.796-149.499L-14.796-149.499z"/>
	<path fill="#0084B6" d="M29.45-159.974c0-0.669-0.334-0.947-1.005-0.947h-4.231c-0.727,0-1.005,0.334-1.227,0.947l-8.417,24.965
		c-0.834,2.395-1.282,5.405-1.282,5.405h-0.111c0,0-0.444-3.01-1.227-5.405l-8.19-24.965c-0.222-0.669-0.56-0.947-1.227-0.947
		h-5.236c-0.671,0-1.004,0.278-1.004,0.947c0,0.22,0.166,0.612,0.277,0.891l13.208,36.558c0.223,0.669,0.556,0.947,1.278,0.947
		h3.625c0.782,0,1.004-0.335,1.227-0.947l13.264-36.558C29.281-159.415,29.45-159.694,29.45-159.974L29.45-159.974z"/>
	<path fill="#0084B6" d="M55.755-122.525v-2.677c0-0.666-0.338-0.946-1.004-0.946H41.324v-13.598H52.69
		c0.667,0,0.944-0.333,0.944-1.003v-2.45c0-0.669-0.277-0.949-0.944-0.949H41.324v-12.26h13.427c0.666,0,1.004-0.335,1.004-1.002
		v-2.563c0-0.669-0.338-0.947-1.004-0.947H35.357c-0.667,0-0.945,0.278-0.945,0.947v37.449c0,0.669,0.278,0.947,0.945,0.947h19.394
		C55.417-121.578,55.755-121.856,55.755-122.525L55.755-122.525z"/>
	<path fill-rule="evenodd" clip-rule="evenodd" fill="#0084B6" d="M89.306-122.525c0-0.28-0.167-0.614-0.338-0.894l-5.902-11.423
		c-1.116-2.171-3.065-4.232-4.407-4.904v-0.111c4.296-1.059,9.032-4.403,9.032-10.252c0-6.69-4.236-11.258-14.603-11.258
		c-4.735,0-8.634,0.558-9.75,0.891c-0.782,0.222-1.004,0.558-1.004,1.226v36.726c0,0.669,0.277,0.947,0.944,0.947h4.796
		c0.667,0,0.944-0.278,0.944-0.947v-16.106h2.176c2.398,0,3.954,2.395,4.848,4.292l5.686,11.923
		c0.222,0.502,0.722,0.838,1.504,0.838h5.125C89.028-121.578,89.306-121.856,89.306-122.525L89.306-122.525z M80.834-149.499
		c0,4.683-3.177,7.746-8.857,7.746c-1.453,0-2.342-0.054-2.958-0.109v-15.325c0.838-0.167,2.064-0.334,4.123-0.334
		C78.44-157.522,80.834-154.735,80.834-149.499L80.834-149.499z"/>
	<path fill-rule="evenodd" clip-rule="evenodd" fill="#0084B6" d="M126.694-122.525c0-0.28-0.11-0.614-0.222-0.894l-13.375-36.555
		c-0.223-0.669-0.556-0.947-1.282-0.947h-4.681c-0.778,0-1.061,0.334-1.282,0.947l-13.375,36.555
		c-0.111,0.335-0.223,0.614-0.223,0.894c0,0.555,0.278,0.947,0.945,0.947h4.069c0.727,0,1.004-0.335,1.225-0.947l3.793-10.756
		h13.431l3.787,10.756c0.223,0.669,0.561,0.947,1.227,0.947h5.015C126.417-121.578,126.694-121.97,126.694-122.525L126.694-122.525z
		 M114.658-137.293h-11.26l3.903-11.481c1.06-3.175,1.671-7.188,1.671-7.188h0.111c0,0,0.671,4.013,1.727,7.188L114.658-137.293
		L114.658-137.293z"/>
	<path fill-rule="evenodd" clip-rule="evenodd" fill="#ABADB0" d="M-75.759-88.217c0-0.207-0.081-0.451-0.162-0.655l-9.861-26.958
		c-0.167-0.494-0.41-0.697-0.944-0.697h-3.454c-0.573,0-0.782,0.247-0.944,0.697l-9.861,26.958
		c-0.081,0.245-0.163,0.448-0.163,0.655c0,0.413,0.201,0.7,0.697,0.7h3.001c0.534,0,0.739-0.25,0.901-0.7l2.796-7.93h9.903
		l2.792,7.93c0.162,0.493,0.414,0.7,0.906,0.7h3.697C-75.959-87.517-75.759-87.804-75.759-88.217L-75.759-88.217z M-84.633-99.106
		h-8.301l2.877-8.463c0.782-2.339,1.235-5.299,1.235-5.299h0.077c0,0,0.495,2.96,1.277,5.299L-84.633-99.106L-84.633-99.106z"/>
	<path fill-rule="evenodd" clip-rule="evenodd" fill="#ABADB0" d="M-54.019-99.227c0-5.836-2.753-10.068-7.724-10.068
		c-2.915,0-5.053,1.601-5.878,2.38v-11.339c0-0.494-0.205-0.7-0.696-0.7h-3.249c-0.491,0-0.739,0.207-0.739,0.7v26.912
		c0,1.521,0.415,2.263,1.564,3.002c1.111,0.697,3.163,1.354,6.04,1.354C-58.784-86.985-54.019-91.135-54.019-99.227L-54.019-99.227z
		 M-58.784-98.45c0,6.041-2.958,8.63-5.673,8.63c-2.013,0-3.163-0.82-3.163-2.298v-12.533c0.74-0.7,2.181-1.604,3.945-1.604
		C-60.798-106.255-58.784-103.791-58.784-98.45L-58.784-98.45z"/>
	<path fill-rule="evenodd" clip-rule="evenodd" fill="#ABADB0" d="M-30.838-98.243c0-6.288-3.612-11.093-9.694-11.093
		c-6.083,0-9.656,4.806-9.656,11.093c0,6.285,3.449,11.258,9.656,11.258C-34.33-86.985-30.838-91.958-30.838-98.243L-30.838-98.243z
		 M-35.646-98.121c0,4.479-1.231,8.219-4.848,8.219c-3.451,0-4.89-4.19-4.89-8.711c0-4.437,1.397-8.093,4.766-8.093
		C-37.126-106.706-35.646-102.597-35.646-98.121L-35.646-98.121z"/>
	<path fill-rule="evenodd" clip-rule="evenodd" fill="#ABADB0" d="M-7.742-85.587c0-5.053-5.053-5.134-9.289-5.176
		c-3.077-0.044-5.753-0.044-5.753-1.849c0-0.987,1.196-2.096,1.727-2.425c0.744,0.247,1.483,0.371,2.548,0.371
		c4.971,0,8.263-3.044,8.263-7.317c0-1.479-0.496-2.834-1.235-3.862c1.359-0.161,2.509-0.532,3.124-0.861
		c0.329-0.165,0.449-0.37,0.449-0.578c0-0.161-0.12-0.49-0.244-0.821c-0.124-0.451-0.205-0.616-0.453-0.616
		c-0.162,0-0.367,0-0.534,0.084c-0.653,0.286-1.723,0.574-3,0.574c-1.766,0-3.04-1.273-6.369-1.273
		c-4.972,0-8.259,3.042-8.259,7.353c0,2.756,1.355,4.973,3.578,6.248c-0.987,0.535-3.616,2.34-3.616,4.437
		c0,1.932,1.56,2.834,3.163,3.203c-1.479,0.823-3.902,2.548-3.902,5.222c0,3.248,2.957,5.464,8.339,5.464
		C-12.633-77.41-7.742-81.068-7.742-85.587L-7.742-85.587z M-11.932-84.562c0,2.386-2.796,4.48-6.125,4.48
		c-3.574,0-5.425-1.56-5.425-3.902c0-1.604,1.231-2.918,2.343-3.658C-16.988-87.272-11.932-88.134-11.932-84.562L-11.932-84.562z
		 M-14.44-101.531c0,2.507-1.479,4.273-3.984,4.273c-2.753,0-4.069-2.876-4.069-5.466c0-2.421,1.479-4.229,3.984-4.229
		C-15.757-106.953-14.44-104.119-14.44-101.531L-14.44-101.531z"/>
	<path fill-rule="evenodd" clip-rule="evenodd" fill="#ABADB0" d="M10.873-91.545v-11.589c0-4.188-3.125-6.201-6.865-6.201
		c-6.206,0-8.626,3.409-8.626,5.217c0,1.275,0.983,1.891,2.095,1.891c1.026,0,1.847-0.538,2.095-1.398
		c0.367-1.312,1.479-3.203,3.783-3.203c1.765,0,2.996,1.272,2.996,3.326v2.797C1.255-99.72-5.524-98.325-5.524-92.78
		c0,3.986,3.945,5.795,8.712,5.795c2.59,0,5.219-0.657,6.121-1.271C10.463-89.041,10.873-89.779,10.873-91.545L10.873-91.545z
		 M6.351-91.831c0,1.767-1.685,2.299-3.244,2.299c-2.672,0-4.108-1.645-4.108-3.617c0-3.571,3.531-4.683,7.353-5.465V-91.831
		L6.351-91.831z"/>
	<path fill-rule="evenodd" clip-rule="evenodd" fill="#ABADB0" d="M33.802-91.38v-26.874c0-0.494-0.206-0.7-0.701-0.7h-3.245
		c-0.491,0-0.739,0.207-0.739,0.7v10.069c-0.534-0.372-1.932-1.11-3.988-1.11c-6.45,0-9.613,5.998-9.613,11.71
		c0,5.753,2.834,10.599,10.438,10.599c2.586,0,5.22-0.657,6.326-1.396C33.434-89.164,33.802-89.902,33.802-91.38L33.802-91.38z
		 M29.116-92.118c0,1.478-0.987,2.257-3.039,2.257c-2.838,0-5.835-2.628-5.835-8.26c0-5.176,2.257-8.667,5.711-8.667
		c1.599,0,2.503,0.494,3.163,1.027V-92.118L29.116-92.118z"/>
	<path fill-rule="evenodd" clip-rule="evenodd" fill="#ABADB0" d="M57.803-98.243c0-6.288-3.616-11.093-9.699-11.093
		c-6.078,0-9.651,4.806-9.651,11.093c0,6.285,3.449,11.258,9.651,11.258S57.803-91.958,57.803-98.243L57.803-98.243z M52.994-98.121
		c0,4.479-1.231,8.219-4.848,8.219c-3.454,0-4.89-4.19-4.89-8.711c0-4.437,1.397-8.093,4.766-8.093
		C51.515-106.706,52.994-102.597,52.994-98.121L52.994-98.121z"/>
	<path fill="#ABADB0" d="M76.952-93.473c0-7.029-10.806-5.838-10.806-10.646c0-1.808,1.107-2.918,3.039-2.918
		c1.851,0,2.71,1.439,3.249,2.715c0.324,0.86,1.106,1.396,2.052,1.396c1.025,0,1.849-0.618,1.849-1.849
		c0-1.645-2.016-4.561-7.063-4.561c-4.356,0-7.442,2.219-7.442,6.039c0,6.577,10.644,5.587,10.644,10.517
		c0,1.935-1.437,3.125-3.082,3.125c-2.218,0-3.12-1.48-3.778-3.125c-0.329-0.819-1.192-1.354-2.219-1.354
		c-1.154,0-1.971,0.661-1.971,1.972c0,1.808,2.339,5.177,7.887,5.177C73.994-86.985,76.952-89.571,76.952-93.473L76.952-93.473z"/>
	<path fill="#9DCFE6" stroke="#9DCFE6" stroke-width="0.9945" stroke-miterlimit="3.8637" d="M-348.672-157.955
		c0-1.098,0.889-1.989,1.99-1.989h33.83c1.099,0,1.988,0.891,1.988,1.989v33.833c0,1.098-0.889,1.987-1.988,1.987h-33.83
		c-1.101,0-1.99-0.889-1.99-1.987V-157.955L-348.672-157.955z"/>
	<path fill="#0084B6" stroke="#0084B6" stroke-width="0.9945" stroke-miterlimit="3.8637" d="M-305.888-113.678
		c0-1.099,0.891-1.989,1.988-1.989h23.386c1.099,0,1.988,0.89,1.988,1.989v23.381c0,1.102-0.889,1.993-1.988,1.993H-303.9
		c-1.097,0-1.988-0.892-1.988-1.993V-113.678L-305.888-113.678z"/>
	
		<line fill="none" stroke="#ABADB0" stroke-width="0.9945" stroke-miterlimit="3.8637" x1="-311.359" y1="-115.802" x2="-311.359" y2="-68.299"/>
</g>
<g>
	<g>
		<path fill="#9DCFE6" stroke="#9DCFE6" stroke-width="0.7744" stroke-miterlimit="3.8637" d="M-329.768,1.053
			c0-0.857,0.692-1.551,1.55-1.551h26.338c0.854,0,1.546,0.694,1.546,1.551v26.346c0,0.856-0.692,1.549-1.546,1.549h-26.338
			c-0.858,0-1.55-0.693-1.55-1.549V1.053L-329.768,1.053z"/>
		<path fill="#0084B6" stroke="#0084B6" stroke-width="0.7744" stroke-miterlimit="3.8637" d="M-296.458,35.535
			c0-0.856,0.691-1.548,1.547-1.548h18.207c0.855,0,1.546,0.692,1.546,1.548v18.209c0,0.857-0.691,1.552-1.546,1.552h-18.207
			c-0.856,0-1.547-0.695-1.547-1.552V35.535L-296.458,35.535z"/>
	</g>
	
		<line fill="none" stroke="#ABADB0" stroke-width="0.7744" stroke-miterlimit="3.8637" x1="-300.72" y1="33.88" x2="-300.72" y2="187.591"/>
</g>
<g>
	<path fill-rule="evenodd" clip-rule="evenodd" fill="#9DCFE6" d="M-258.814,268.565c0-0.212-0.085-0.462-0.167-0.671l-10.035-27.43
		c-0.168-0.502-0.42-0.711-0.965-0.711h-3.509c-0.585,0-0.795,0.251-0.962,0.711l-10.036,27.43c-0.083,0.25-0.167,0.459-0.167,0.671
		c0,0.415,0.21,0.708,0.712,0.708h3.05c0.543,0,0.753-0.253,0.92-0.708l2.845-8.071h10.076l2.843,8.071
		c0.167,0.5,0.42,0.708,0.92,0.708h3.762C-259.024,269.273-258.814,268.98-258.814,268.565L-258.814,268.565z M-267.846,257.483
		h-8.448l2.928-8.614c0.794-2.383,1.254-5.395,1.254-5.395h0.083c0,0,0.502,3.012,1.295,5.395L-267.846,257.483L-267.846,257.483z"
		/>
	<path fill="#9DCFE6" d="M-231.299,268.565v-28.101c0-0.502-0.25-0.711-0.752-0.711h-2.718c-0.502,0-0.712,0.209-0.712,0.711v16.769
		c0,2.467,0.293,5.477,0.293,5.477h-0.083c0,0-1.129-2.802-2.551-4.936l-11.456-17.31c-0.293-0.46-0.586-0.711-1.089-0.711h-3.929
		c-0.503,0-0.71,0.209-0.71,0.711v28.101c0,0.5,0.207,0.708,0.71,0.708h2.716c0.502,0,0.752-0.208,0.752-0.708v-18.317
		c0-2.213-0.292-5.185-0.292-5.185h0.083c0,0,1.171,2.844,2.51,4.852l12.292,18.65c0.293,0.455,0.545,0.708,1.129,0.708h3.053
		C-231.549,269.273-231.299,269.065-231.299,268.565L-231.299,268.565z"/>
	<path fill-rule="evenodd" clip-rule="evenodd" fill="#9DCFE6" d="M-202.026,254.471c0-9.113-4.975-15.05-15.554-15.05
		c-3.18,0-6.106,0.458-6.815,0.667c-0.587,0.167-0.753,0.42-0.753,0.921v27.011c0,0.501,0.167,0.754,0.753,0.921
		c0.752,0.248,4.056,0.67,6.815,0.67C-207.044,269.61-202.026,263.966-202.026,254.471L-202.026,254.471z M-207.421,254.389
		c0,7.444-2.927,11.917-9.615,11.917c-1.212,0-2.301-0.084-2.97-0.21v-23.413c0.502-0.127,1.758-0.212,2.97-0.212
		C-210.598,242.471-207.421,246.948-207.421,254.389L-207.421,254.389z"/>
	<path fill-rule="evenodd" clip-rule="evenodd" fill="#9DCFE6" d="M-176.479,268.565c0-0.212-0.126-0.462-0.251-0.671l-4.433-8.573
		c-0.835-1.629-2.298-3.175-3.304-3.679v-0.083c3.22-0.795,6.774-3.304,6.774-7.692c0-5.02-3.177-8.446-10.953-8.446
		c-3.557,0-6.483,0.418-7.319,0.667c-0.587,0.167-0.753,0.42-0.753,0.921v27.557c0,0.5,0.21,0.708,0.712,0.708h3.594
		c0.503,0,0.713-0.208,0.713-0.708v-12.087h1.631c1.797,0,2.966,1.798,3.637,3.222l4.264,8.946c0.168,0.374,0.543,0.627,1.129,0.627
		h3.847C-176.689,269.273-176.479,269.065-176.479,268.565L-176.479,268.565z M-182.836,248.325c0,3.514-2.383,5.813-6.648,5.813
		c-1.085,0-1.756-0.043-2.215-0.085v-11.498c0.627-0.125,1.546-0.25,3.094-0.25C-184.633,242.306-182.836,244.396-182.836,248.325
		L-182.836,248.325z"/>
	<path fill-rule="evenodd" clip-rule="evenodd" fill="#9DCFE6" d="M-155.911,268.565v-2.012c0-0.498-0.25-0.709-0.752-0.709h-10.075
		v-10.202h8.528c0.502,0,0.712-0.25,0.712-0.752v-1.839c0-0.501-0.21-0.712-0.712-0.712h-8.528v-9.198h10.075
		c0.502,0,0.752-0.251,0.752-0.753v-1.924c0-0.502-0.25-0.711-0.752-0.711h-14.551c-0.5,0-0.71,0.209-0.71,0.711v28.101
		c0,0.5,0.21,0.708,0.71,0.708h14.551C-156.161,269.273-155.911,269.065-155.911,268.565L-155.911,268.565z M-158.837,231.727
		c0-0.459-0.752-0.836-1.798-0.836c-1.339,0-2.551,0.461-2.968,1.169l-2.466,3.933c-0.126,0.25-0.251,0.417-0.251,0.584
		c0,0.378,0.208,0.545,0.543,0.545h1.212c0.42,0,0.709-0.25,1.045-0.545l4.349-4.181
		C-159.004,232.227-158.837,231.934-158.837,231.727L-158.837,231.727z"/>
	<path fill="#9DCFE6" d="M-132.619,261.579c0-10.325-14.088-8.444-14.088-15.01c0-2.717,1.756-4.349,4.349-4.349
		c2.591,0,3.719,1.881,4.429,3.429c0.42,0.92,1.173,1.632,2.257,1.632c1.341,0,2.303-0.795,2.303-2.258
		c0-1.924-2.761-5.896-8.906-5.896c-5.311,0-9.41,2.972-9.41,8.028c0,9.49,13.882,7.609,13.882,14.968
		c0,2.425-1.589,4.393-4.516,4.393c-2.885,0-4.433-2.512-5.058-4.226c-0.376-1.002-1.255-1.756-2.511-1.756
		c-1.38,0-2.381,0.837-2.381,2.343c0,2.55,3.594,7.025,9.741,7.025C-136.256,269.902-132.619,266.389-132.619,261.579
		L-132.619,261.579z"/>
	<path fill="#0084B6" d="M-105.646,264.133c0-0.754-0.501-1.298-1.213-1.298c-0.458,0-0.795,0.167-1.212,0.544
		c-1.171,1.129-2.97,2.717-6.19,2.717c-5.225,0-8.736-5.352-8.736-12.752c0-7.067,3.095-11.081,7.357-11.081
		c3.474,0,4.728,2.384,5.353,3.637c0.379,0.795,1.088,1.674,2.303,1.674c1.338,0,2.339-0.795,2.339-2.216
		c0-2.133-3.221-6.23-9.741-6.23c-8.198,0-13.089,6.815-13.089,15.137c0,8.446,4.307,15.639,13.381,15.639
		C-109.408,269.902-105.646,265.971-105.646,264.133L-105.646,264.133z"/>
	<path fill="#0084B6" d="M-85.071,268.565v-2.012c0-0.498-0.25-0.709-0.754-0.709h-10.077v-10.202h8.531
		c0.501,0,0.712-0.25,0.712-0.752v-1.839c0-0.501-0.211-0.712-0.712-0.712h-8.531v-9.198h10.077c0.504,0,0.754-0.251,0.754-0.753
		v-1.924c0-0.502-0.25-0.711-0.754-0.711h-14.551c-0.501,0-0.709,0.209-0.709,0.711v28.101c0,0.5,0.208,0.708,0.709,0.708h14.551
		C-85.321,269.273-85.071,269.065-85.071,268.565L-85.071,268.565z"/>
	<path fill-rule="evenodd" clip-rule="evenodd" fill="#0084B6" d="M-59.897,268.565c0-0.212-0.125-0.462-0.25-0.671l-4.433-8.573
		c-0.837-1.629-2.3-3.175-3.304-3.679v-0.083c3.221-0.795,6.773-3.304,6.773-7.692c0-5.02-3.178-8.446-10.955-8.446
		c-3.554,0-6.482,0.418-7.316,0.667c-0.587,0.167-0.754,0.42-0.754,0.921v27.557c0,0.5,0.209,0.708,0.709,0.708h3.599
		c0.5,0,0.709-0.208,0.709-0.708v-12.087h1.633c1.796,0,2.966,1.798,3.637,3.222l4.266,8.946c0.167,0.374,0.545,0.627,1.126,0.627
		h3.852C-60.106,269.273-59.897,269.065-59.897,268.565L-59.897,268.565z M-66.254,248.325c0,3.514-2.384,5.813-6.649,5.813
		c-1.087,0-1.754-0.043-2.216-0.085v-11.498c0.629-0.125,1.549-0.25,3.095-0.25C-68.054,242.306-66.254,244.396-66.254,248.325
		L-66.254,248.325z"/>
	<path fill="#0084B6" d="M-33.056,240.465c0-0.502-0.251-0.711-0.754-0.711h-3.176c-0.545,0-0.753,0.251-0.92,0.711l-6.315,18.731
		c-0.625,1.798-0.962,4.058-0.962,4.058h-0.083c0,0-0.334-2.26-0.921-4.058l-6.146-18.731c-0.166-0.502-0.42-0.711-0.92-0.711
		h-3.929c-0.504,0-0.754,0.209-0.754,0.711c0,0.167,0.125,0.46,0.208,0.669l9.911,27.432c0.166,0.5,0.416,0.708,0.959,0.708h2.72
		c0.587,0,0.753-0.253,0.92-0.708l9.952-27.432C-33.181,240.885-33.056,240.675-33.056,240.465L-33.056,240.465z"/>
	<path fill="#0084B6" d="M-13.318,268.565v-2.012c0-0.498-0.254-0.709-0.754-0.709h-10.074v-10.202h8.528
		c0.5,0,0.709-0.25,0.709-0.752v-1.839c0-0.501-0.209-0.712-0.709-0.712h-8.528v-9.198h10.074c0.5,0,0.754-0.251,0.754-0.753v-1.924
		c0-0.502-0.254-0.711-0.754-0.711h-14.552c-0.5,0-0.708,0.209-0.708,0.711v28.101c0,0.5,0.208,0.708,0.708,0.708h14.552
		C-13.572,269.273-13.318,269.065-13.318,268.565L-13.318,268.565z"/>
	<path fill-rule="evenodd" clip-rule="evenodd" fill="#0084B6" d="M11.855,268.565c0-0.212-0.125-0.462-0.254-0.671l-4.429-8.573
		c-0.838-1.629-2.3-3.175-3.307-3.679v-0.083c3.223-0.795,6.776-3.304,6.776-7.692c0-5.02-3.178-8.446-10.956-8.446
		c-3.554,0-6.479,0.418-7.315,0.667c-0.587,0.167-0.754,0.42-0.754,0.921v27.557c0,0.5,0.209,0.708,0.709,0.708h3.599
		c0.5,0,0.709-0.208,0.709-0.708v-12.087h1.632c1.8,0,2.967,1.798,3.638,3.222l4.264,8.946c0.168,0.374,0.544,0.627,1.131,0.627
		h3.846C11.646,269.273,11.855,269.065,11.855,268.565L11.855,268.565z M5.498,248.325c0,3.514-2.383,5.813-6.646,5.813
		c-1.09,0-1.757-0.043-2.219-0.085v-11.498c0.628-0.125,1.549-0.25,3.095-0.25C3.702,242.306,5.498,244.396,5.498,248.325
		L5.498,248.325z"/>
	<path fill-rule="evenodd" clip-rule="evenodd" fill="#0084B6" d="M39.91,268.565c0-0.212-0.084-0.462-0.167-0.671l-10.039-27.43
		c-0.163-0.502-0.413-0.711-0.959-0.711h-3.512c-0.584,0-0.795,0.251-0.962,0.711l-10.036,27.43
		c-0.084,0.25-0.167,0.459-0.167,0.671c0,0.415,0.208,0.708,0.709,0.708h3.053c0.546,0,0.754-0.253,0.921-0.708l2.846-8.071h10.077
		l2.842,8.071c0.166,0.5,0.42,0.708,0.92,0.708h3.763C39.701,269.273,39.91,268.98,39.91,268.565L39.91,268.565z M30.878,257.483
		h-8.447l2.928-8.614c0.796-2.383,1.254-5.395,1.254-5.395h0.084c0,0,0.503,3.012,1.295,5.395L30.878,257.483L30.878,257.483z"/>
	<path fill-rule="evenodd" clip-rule="evenodd" fill="#ABADB0" d="M-111.996,294.307c0-0.154-0.062-0.34-0.122-0.492l-7.399-20.227
		c-0.125-0.371-0.308-0.523-0.709-0.523h-2.591c-0.43,0-0.587,0.187-0.709,0.523l-7.399,20.227
		c-0.061,0.185-0.122,0.338-0.122,0.492c0,0.311,0.151,0.524,0.523,0.524h2.251c0.401,0,0.555-0.185,0.677-0.524l2.097-5.95h7.432
		l2.094,5.95c0.122,0.368,0.311,0.524,0.68,0.524h2.774C-112.147,294.831-111.996,294.617-111.996,294.307L-111.996,294.307z
		 M-118.654,286.136h-6.229l2.158-6.351c0.587-1.756,0.927-3.977,0.927-3.977h0.058c0,0,0.372,2.221,0.959,3.977L-118.654,286.136
		L-118.654,286.136z"/>
	<path fill-rule="evenodd" clip-rule="evenodd" fill="#ABADB0" d="M-95.685,286.045c0-4.378-2.065-7.554-5.795-7.554
		c-2.188,0-3.791,1.199-4.41,1.787v-8.51c0-0.37-0.154-0.522-0.522-0.522h-2.438c-0.369,0-0.556,0.152-0.556,0.522v20.193
		c0,1.142,0.312,1.696,1.173,2.252c0.835,0.523,2.375,1.017,4.533,1.017C-99.261,295.23-95.685,292.117-95.685,286.045
		L-95.685,286.045z M-99.261,286.628c0,4.532-2.219,6.476-4.256,6.476c-1.511,0-2.373-0.615-2.373-1.726v-9.403
		c0.555-0.522,1.636-1.203,2.96-1.203C-100.771,280.771-99.261,282.621-99.261,286.628L-99.261,286.628z"/>
	<path fill-rule="evenodd" clip-rule="evenodd" fill="#ABADB0" d="M-78.291,286.784c0-4.719-2.71-8.325-7.274-8.325
		c-4.563,0-7.245,3.606-7.245,8.325c0,4.716,2.588,8.446,7.245,8.446C-80.911,295.23-78.291,291.5-78.291,286.784L-78.291,286.784z
		 M-81.899,286.875c0,3.361-0.924,6.166-3.637,6.166c-2.589,0-3.669-3.143-3.669-6.534c0-3.33,1.049-6.073,3.575-6.073
		C-83.009,280.434-81.899,283.516-81.899,286.875L-81.899,286.875z"/>
	<path fill-rule="evenodd" clip-rule="evenodd" fill="#ABADB0" d="M-60.962,296.279c0-3.791-3.791-3.853-6.97-3.885
		c-2.31-0.032-4.317-0.032-4.317-1.385c0-0.741,0.896-1.573,1.296-1.82c0.557,0.185,1.113,0.277,1.912,0.277
		c3.729,0,6.199-2.282,6.199-5.489c0-1.109-0.372-2.127-0.927-2.897c1.02-0.122,1.883-0.399,2.345-0.646
		c0.246-0.124,0.336-0.277,0.336-0.432c0-0.123-0.09-0.37-0.183-0.619c-0.095-0.337-0.153-0.462-0.34-0.462
		c-0.122,0-0.275,0-0.4,0.062c-0.491,0.215-1.293,0.432-2.252,0.432c-1.324,0-2.28-0.956-4.778-0.956
		c-3.73,0-6.197,2.284-6.197,5.519c0,2.067,1.017,3.73,2.685,4.688c-0.74,0.4-2.713,1.756-2.713,3.329
		c0,1.449,1.171,2.126,2.373,2.405c-1.109,0.616-2.928,1.91-2.928,3.916c0,2.438,2.219,4.099,6.257,4.099
		C-64.632,302.414-60.962,299.671-60.962,296.279L-60.962,296.279z M-64.105,297.049c0,1.789-2.098,3.361-4.596,3.361
		c-2.682,0-4.07-1.171-4.07-2.929c0-1.202,0.924-2.19,1.758-2.744C-67.899,295.016-64.105,294.37-64.105,297.049L-64.105,297.049z
		 M-65.988,284.317c0,1.88-1.109,3.206-2.989,3.206c-2.065,0-3.053-2.159-3.053-4.1c0-1.819,1.109-3.175,2.989-3.175
		C-66.976,280.249-65.988,282.374-65.988,284.317L-65.988,284.317z"/>
	<path fill-rule="evenodd" clip-rule="evenodd" fill="#ABADB0" d="M-46.996,291.808v-8.694c0-3.144-2.343-4.654-5.149-4.654
		c-4.657,0-6.473,2.56-6.473,3.915c0,0.957,0.738,1.419,1.572,1.419c0.77,0,1.385-0.404,1.571-1.049
		c0.275-0.984,1.109-2.403,2.838-2.403c1.325,0,2.249,0.955,2.249,2.496v2.098c-3.823,0.741-8.91,1.787-8.91,5.948
		c0,2.99,2.96,4.348,6.536,4.348c1.944,0,3.916-0.493,4.593-0.954C-47.303,293.69-46.996,293.134-46.996,291.808L-46.996,291.808z
		 M-50.388,291.595c0,1.326-1.264,1.724-2.435,1.724c-2.005,0-3.082-1.233-3.082-2.712c0-2.681,2.649-3.514,5.517-4.1V291.595
		L-50.388,291.595z"/>
	<path fill-rule="evenodd" clip-rule="evenodd" fill="#ABADB0" d="M-29.791,291.933v-20.164c0-0.37-0.154-0.522-0.526-0.522h-2.434
		c-0.369,0-0.556,0.152-0.556,0.522v7.557c-0.4-0.279-1.449-0.834-2.992-0.834c-4.84,0-7.213,4.5-7.213,8.786
		c0,4.317,2.126,7.953,7.832,7.953c1.94,0,3.916-0.493,4.747-1.046C-30.067,293.596-29.791,293.041-29.791,291.933L-29.791,291.933z
		 M-33.307,291.378c0,1.11-0.74,1.695-2.28,1.695c-2.129,0-4.378-1.973-4.378-6.198c0-3.884,1.693-6.504,4.285-6.504
		c1.199,0,1.88,0.372,2.373,0.771V291.378L-33.307,291.378z"/>
	<path fill-rule="evenodd" clip-rule="evenodd" fill="#ABADB0" d="M-11.782,286.784c0-4.719-2.714-8.325-7.277-8.325
		c-4.561,0-7.242,3.606-7.242,8.325c0,4.716,2.589,8.446,7.242,8.446S-11.782,291.5-11.782,286.784L-11.782,286.784z
		 M-15.391,286.875c0,3.361-0.924,6.166-3.637,6.166c-2.592,0-3.669-3.143-3.669-6.534c0-3.33,1.049-6.073,3.576-6.073
		C-16.5,280.434-15.391,283.516-15.391,286.875L-15.391,286.875z"/>
	<path fill="#ABADB0" d="M2.586,290.361c0-5.274-8.107-4.379-8.107-7.987c0-1.355,0.83-2.189,2.28-2.189
		c1.389,0,2.033,1.078,2.438,2.037c0.243,0.646,0.83,1.047,1.539,1.047c0.77,0,1.389-0.462,1.389-1.387
		c0-1.235-1.514-3.423-5.302-3.423c-3.268,0-5.583,1.665-5.583,4.532c0,4.935,7.985,4.193,7.985,7.892
		c0,1.451-1.077,2.345-2.312,2.345c-1.664,0-2.341-1.11-2.835-2.345c-0.247-0.614-0.895-1.017-1.664-1.017
		c-0.866,0-1.479,0.495-1.479,1.48c0,1.356,1.754,3.884,5.917,3.884C0.367,295.23,2.586,293.29,2.586,290.361L2.586,290.361z"/>
	<path fill="#9DCFE6" stroke="#9DCFE6" stroke-width="0.7462" stroke-miterlimit="3.8637" d="M-316.769,241.98
		c0-0.825,0.667-1.495,1.492-1.495h25.384c0.824,0,1.492,0.67,1.492,1.495v25.385c0,0.824-0.668,1.491-1.492,1.491h-25.384
		c-0.825,0-1.492-0.667-1.492-1.491V241.98L-316.769,241.98z"/>
	<path fill="#0084B6" stroke="#0084B6" stroke-width="0.7462" stroke-miterlimit="3.8637" d="M-284.667,275.202
		c0-0.824,0.668-1.491,1.491-1.491h17.547c0.824,0,1.491,0.667,1.491,1.491v17.544c0,0.826-0.667,1.496-1.491,1.496h-17.547
		c-0.823,0-1.491-0.67-1.491-1.496V275.202L-284.667,275.202z"/>
	
		<line fill="none" stroke="#ABADB0" stroke-width="0.7462" stroke-miterlimit="3.8637" x1="-288.773" y1="273.608" x2="-288.773" y2="421.702"/>
</g>
<path fill="#9DCFE6" stroke="#9DCFE6" stroke-width="0.7834" stroke-miterlimit="3.8637" d="M0.392,1.941
	c0-0.854,0.709-1.549,1.584-1.549h26.943c0.876,0,1.583,0.695,1.583,1.549v26.358c0,0.856-0.707,1.547-1.583,1.547H1.976
	c-0.875,0-1.584-0.691-1.584-1.547V1.941L0.392,1.941z"/>
<path fill="#FFFFFF" d="M34.467,36.439c0-0.859,0.706-1.551,1.583-1.551h18.622c0.875,0,1.582,0.691,1.582,1.551V54.65
	c0,0.857-0.707,1.55-1.582,1.55H36.05c-0.877,0-1.583-0.693-1.583-1.55V36.439L34.467,36.439z"/>
<line fill="none" stroke="#ABADB0" stroke-width="0.7744" stroke-miterlimit="3.8637" x1="30.502" y1="36.439" x2="30.502" y2="187.195"/>
</svg>
